<mxfile host="app.diagrams.net" modified="2024-04-17T22:18:24.757Z" agent="Mozilla/5.0 (X11; Linux x86_64) AppleWebKit/537.36 (KHTML, like Gecko) Chrome/124.0.0.0 Safari/537.36" etag="kKHK3C-DK02LPFSRImGv" version="24.2.1" type="github">
  <diagram name="Page-1" id="VXjl9vDxlwx6784yo-qi">
    <mxGraphModel dx="4237" dy="1898" grid="1" gridSize="10" guides="1" tooltips="1" connect="1" arrows="1" fold="1" page="1" pageScale="1" pageWidth="827" pageHeight="1169" math="0" shadow="0">
      <root>
        <mxCell id="0" />
        <mxCell id="1" parent="0" />
        <mxCell id="w_ae4oNYbUjGFQi2PLQw-1" value="" style="rounded=1;whiteSpace=wrap;html=1;" parent="1" vertex="1">
          <mxGeometry x="259" y="160" width="310" height="410" as="geometry" />
        </mxCell>
        <mxCell id="w_ae4oNYbUjGFQi2PLQw-5" style="edgeStyle=orthogonalEdgeStyle;rounded=0;orthogonalLoop=1;jettySize=auto;html=1;entryX=0.5;entryY=1;entryDx=0;entryDy=0;" parent="1" source="w_ae4oNYbUjGFQi2PLQw-2" target="w_ae4oNYbUjGFQi2PLQw-3" edge="1">
          <mxGeometry relative="1" as="geometry" />
        </mxCell>
        <mxCell id="w_ae4oNYbUjGFQi2PLQw-2" value="Self Attention" style="rounded=1;whiteSpace=wrap;html=1;fillColor=#d5e8d4;strokeColor=#82b366;" parent="1" vertex="1">
          <mxGeometry x="312" y="460" width="196" height="60" as="geometry" />
        </mxCell>
        <mxCell id="w_ae4oNYbUjGFQi2PLQw-6" style="edgeStyle=orthogonalEdgeStyle;rounded=0;orthogonalLoop=1;jettySize=auto;html=1;entryX=0.5;entryY=1;entryDx=0;entryDy=0;" parent="1" source="w_ae4oNYbUjGFQi2PLQw-3" target="w_ae4oNYbUjGFQi2PLQw-4" edge="1">
          <mxGeometry relative="1" as="geometry" />
        </mxCell>
        <mxCell id="w_ae4oNYbUjGFQi2PLQw-3" value="Cross Attention" style="rounded=1;whiteSpace=wrap;html=1;fillColor=#f8cecc;strokeColor=#b85450;" parent="1" vertex="1">
          <mxGeometry x="312" y="340" width="196" height="60" as="geometry" />
        </mxCell>
        <mxCell id="w_ae4oNYbUjGFQi2PLQw-9" style="edgeStyle=orthogonalEdgeStyle;rounded=0;orthogonalLoop=1;jettySize=auto;html=1;" parent="1" source="w_ae4oNYbUjGFQi2PLQw-4" edge="1">
          <mxGeometry relative="1" as="geometry">
            <mxPoint x="410" y="80" as="targetPoint" />
          </mxGeometry>
        </mxCell>
        <mxCell id="w_ae4oNYbUjGFQi2PLQw-4" value="Feed forward Network" style="rounded=1;whiteSpace=wrap;html=1;fillColor=#dae8fc;strokeColor=#6c8ebf;" parent="1" vertex="1">
          <mxGeometry x="312" y="220" width="196" height="60" as="geometry" />
        </mxCell>
        <mxCell id="w_ae4oNYbUjGFQi2PLQw-7" value="" style="endArrow=classic;html=1;rounded=0;entryX=0.5;entryY=1;entryDx=0;entryDy=0;" parent="1" target="w_ae4oNYbUjGFQi2PLQw-2" edge="1">
          <mxGeometry width="50" height="50" relative="1" as="geometry">
            <mxPoint x="410" y="650" as="sourcePoint" />
            <mxPoint x="440" y="370" as="targetPoint" />
          </mxGeometry>
        </mxCell>
        <mxCell id="xg--p2_k-tHuz6Lo-uCZ-1" value="" style="rounded=1;whiteSpace=wrap;html=1;fontSize=16;fontFamily=Times New Roman;" vertex="1" parent="1">
          <mxGeometry x="-240" y="1010" width="320" height="470" as="geometry" />
        </mxCell>
        <mxCell id="xg--p2_k-tHuz6Lo-uCZ-2" style="edgeStyle=orthogonalEdgeStyle;rounded=0;orthogonalLoop=1;jettySize=auto;html=1;entryX=0.5;entryY=1;entryDx=0;entryDy=0;fontSize=16;fontFamily=Times New Roman;" edge="1" parent="1" source="xg--p2_k-tHuz6Lo-uCZ-3" target="xg--p2_k-tHuz6Lo-uCZ-5">
          <mxGeometry relative="1" as="geometry" />
        </mxCell>
        <mxCell id="xg--p2_k-tHuz6Lo-uCZ-3" value="Self Attention" style="rounded=1;whiteSpace=wrap;html=1;fillColor=#d5e8d4;strokeColor=#82b366;fontSize=16;fontFamily=Times New Roman;" vertex="1" parent="1">
          <mxGeometry x="-187" y="1370" width="196" height="60" as="geometry" />
        </mxCell>
        <mxCell id="xg--p2_k-tHuz6Lo-uCZ-4" style="edgeStyle=orthogonalEdgeStyle;rounded=0;orthogonalLoop=1;jettySize=auto;html=1;entryX=0.5;entryY=1;entryDx=0;entryDy=0;fontSize=16;fontFamily=Times New Roman;" edge="1" parent="1" source="xg--p2_k-tHuz6Lo-uCZ-5" target="xg--p2_k-tHuz6Lo-uCZ-7">
          <mxGeometry relative="1" as="geometry" />
        </mxCell>
        <mxCell id="xg--p2_k-tHuz6Lo-uCZ-5" value="Cross Attention" style="rounded=1;whiteSpace=wrap;html=1;fillColor=#f8cecc;strokeColor=#b85450;fontSize=16;fontFamily=Times New Roman;" vertex="1" parent="1">
          <mxGeometry x="-187" y="1250" width="196" height="60" as="geometry" />
        </mxCell>
        <mxCell id="xg--p2_k-tHuz6Lo-uCZ-11" style="edgeStyle=orthogonalEdgeStyle;rounded=0;orthogonalLoop=1;jettySize=auto;html=1;entryX=0.5;entryY=1;entryDx=0;entryDy=0;fontSize=16;fontFamily=Times New Roman;" edge="1" parent="1" source="xg--p2_k-tHuz6Lo-uCZ-7" target="xg--p2_k-tHuz6Lo-uCZ-9">
          <mxGeometry relative="1" as="geometry" />
        </mxCell>
        <mxCell id="xg--p2_k-tHuz6Lo-uCZ-7" value="Feed forward" style="rounded=1;whiteSpace=wrap;html=1;fillColor=#dae8fc;strokeColor=#6c8ebf;fontSize=16;fontFamily=Times New Roman;" vertex="1" parent="1">
          <mxGeometry x="-187" y="1140" width="196" height="60" as="geometry" />
        </mxCell>
        <mxCell id="xg--p2_k-tHuz6Lo-uCZ-8" value="" style="endArrow=classic;html=1;rounded=0;entryX=0.5;entryY=1;entryDx=0;entryDy=0;fontSize=16;fontFamily=Times New Roman;" edge="1" parent="1" target="xg--p2_k-tHuz6Lo-uCZ-3">
          <mxGeometry width="50" height="50" relative="1" as="geometry">
            <mxPoint x="-89" y="1560" as="sourcePoint" />
            <mxPoint x="-59" y="1280" as="targetPoint" />
          </mxGeometry>
        </mxCell>
        <mxCell id="xg--p2_k-tHuz6Lo-uCZ-19" style="edgeStyle=orthogonalEdgeStyle;rounded=0;orthogonalLoop=1;jettySize=auto;html=1;entryX=0.5;entryY=1;entryDx=0;entryDy=0;fontSize=16;fontFamily=Times New Roman;" edge="1" parent="1" source="xg--p2_k-tHuz6Lo-uCZ-9" target="xg--p2_k-tHuz6Lo-uCZ-16">
          <mxGeometry relative="1" as="geometry" />
        </mxCell>
        <mxCell id="xg--p2_k-tHuz6Lo-uCZ-9" value="Adaptor" style="rounded=1;whiteSpace=wrap;html=1;fillColor=#0050ef;strokeColor=#001DBC;fontColor=#ffffff;fontSize=16;fontFamily=Times New Roman;" vertex="1" parent="1">
          <mxGeometry x="-180.25" y="1060" width="182.5" height="40" as="geometry" />
        </mxCell>
        <mxCell id="xg--p2_k-tHuz6Lo-uCZ-20" style="edgeStyle=orthogonalEdgeStyle;rounded=0;orthogonalLoop=1;jettySize=auto;html=1;fontSize=16;fontFamily=Times New Roman;" edge="1" parent="1" source="xg--p2_k-tHuz6Lo-uCZ-16">
          <mxGeometry relative="1" as="geometry">
            <mxPoint x="-90" y="960" as="targetPoint" />
          </mxGeometry>
        </mxCell>
        <mxCell id="xg--p2_k-tHuz6Lo-uCZ-16" value="+" style="ellipse;whiteSpace=wrap;html=1;aspect=fixed;fontSize=16;fontFamily=Times New Roman;" vertex="1" parent="1">
          <mxGeometry x="-94" y="1030" width="10" height="10" as="geometry" />
        </mxCell>
        <mxCell id="xg--p2_k-tHuz6Lo-uCZ-18" value="" style="endArrow=classic;html=1;rounded=0;entryX=0;entryY=0.5;entryDx=0;entryDy=0;fontSize=16;fontFamily=Times New Roman;" edge="1" parent="1" target="xg--p2_k-tHuz6Lo-uCZ-16">
          <mxGeometry width="50" height="50" relative="1" as="geometry">
            <mxPoint x="-90" y="1120" as="sourcePoint" />
            <mxPoint x="-90" y="1140" as="targetPoint" />
            <Array as="points">
              <mxPoint x="-210" y="1120" />
              <mxPoint x="-210" y="1035" />
            </Array>
          </mxGeometry>
        </mxCell>
        <mxCell id="xg--p2_k-tHuz6Lo-uCZ-35" value="" style="group" vertex="1" connectable="0" parent="1">
          <mxGeometry x="230" y="1000" width="297" height="480" as="geometry" />
        </mxCell>
        <mxCell id="xg--p2_k-tHuz6Lo-uCZ-23" value="" style="rounded=1;whiteSpace=wrap;html=1;fontSize=16;fontFamily=Times New Roman;" vertex="1" parent="xg--p2_k-tHuz6Lo-uCZ-35">
          <mxGeometry y="45.00000000000001" width="297" height="397.5" as="geometry" />
        </mxCell>
        <mxCell id="xg--p2_k-tHuz6Lo-uCZ-28" style="edgeStyle=orthogonalEdgeStyle;rounded=0;orthogonalLoop=1;jettySize=auto;html=1;entryX=0.5;entryY=1;entryDx=0;entryDy=0;fontSize=16;fontFamily=Times New Roman;" edge="1" parent="xg--p2_k-tHuz6Lo-uCZ-35" source="xg--p2_k-tHuz6Lo-uCZ-24" target="xg--p2_k-tHuz6Lo-uCZ-25">
          <mxGeometry relative="1" as="geometry" />
        </mxCell>
        <mxCell id="xg--p2_k-tHuz6Lo-uCZ-24" value="Down projection" style="shape=trapezoid;perimeter=trapezoidPerimeter;whiteSpace=wrap;html=1;fixedSize=1;fillColor=#d80073;fontColor=#ffffff;strokeColor=#A50040;fontSize=16;fontFamily=Times New Roman;" vertex="1" parent="xg--p2_k-tHuz6Lo-uCZ-35">
          <mxGeometry x="61.14705882352939" y="300" width="157.23529411764702" height="45.00000000000001" as="geometry" />
        </mxCell>
        <mxCell id="xg--p2_k-tHuz6Lo-uCZ-29" style="edgeStyle=orthogonalEdgeStyle;rounded=0;orthogonalLoop=1;jettySize=auto;html=1;fontSize=16;fontFamily=Times New Roman;" edge="1" parent="xg--p2_k-tHuz6Lo-uCZ-35" source="xg--p2_k-tHuz6Lo-uCZ-25" target="xg--p2_k-tHuz6Lo-uCZ-26">
          <mxGeometry relative="1" as="geometry" />
        </mxCell>
        <mxCell id="xg--p2_k-tHuz6Lo-uCZ-25" value="RELU" style="rounded=0;whiteSpace=wrap;html=1;fillColor=#f5f5f5;strokeColor=#666666;fontColor=#333333;fontSize=16;fontFamily=Times New Roman;" vertex="1" parent="xg--p2_k-tHuz6Lo-uCZ-35">
          <mxGeometry x="97.39852941176467" y="210" width="84.73235294117646" height="30" as="geometry" />
        </mxCell>
        <mxCell id="xg--p2_k-tHuz6Lo-uCZ-30" style="edgeStyle=orthogonalEdgeStyle;rounded=0;orthogonalLoop=1;jettySize=auto;html=1;fontSize=16;fontFamily=Times New Roman;" edge="1" parent="xg--p2_k-tHuz6Lo-uCZ-35" source="xg--p2_k-tHuz6Lo-uCZ-26">
          <mxGeometry relative="1" as="geometry">
            <mxPoint x="139.7647058823529" as="targetPoint" />
          </mxGeometry>
        </mxCell>
        <mxCell id="xg--p2_k-tHuz6Lo-uCZ-26" value="" style="shape=trapezoid;perimeter=trapezoidPerimeter;whiteSpace=wrap;html=1;fixedSize=1;rotation=-180;fillColor=#d80073;fontColor=#ffffff;strokeColor=#A50040;fontSize=16;fontFamily=Times New Roman;" vertex="1" parent="xg--p2_k-tHuz6Lo-uCZ-35">
          <mxGeometry x="61.14705882352939" y="105" width="157.23529411764702" height="45.00000000000001" as="geometry" />
        </mxCell>
        <mxCell id="xg--p2_k-tHuz6Lo-uCZ-27" value="" style="endArrow=classic;html=1;rounded=0;entryX=0.5;entryY=1;entryDx=0;entryDy=0;fontSize=16;fontFamily=Times New Roman;" edge="1" parent="xg--p2_k-tHuz6Lo-uCZ-35" source="xg--p2_k-tHuz6Lo-uCZ-32" target="xg--p2_k-tHuz6Lo-uCZ-24">
          <mxGeometry width="50" height="50" relative="1" as="geometry">
            <mxPoint x="139.7647058823529" y="450" as="sourcePoint" />
            <mxPoint x="78.61764705882351" y="232.5" as="targetPoint" />
          </mxGeometry>
        </mxCell>
        <mxCell id="xg--p2_k-tHuz6Lo-uCZ-31" value="&lt;font style=&quot;font-size: 16px;&quot; color=&quot;#ffffff&quot;&gt;Up projection&lt;/font&gt;" style="text;html=1;align=center;verticalAlign=middle;whiteSpace=wrap;rounded=0;fontSize=16;fontFamily=Times New Roman;" vertex="1" parent="xg--p2_k-tHuz6Lo-uCZ-35">
          <mxGeometry x="91.7205882352941" y="116.25" width="96.08823529411761" height="22.500000000000004" as="geometry" />
        </mxCell>
        <mxCell id="xg--p2_k-tHuz6Lo-uCZ-34" value="" style="endArrow=classic;html=1;rounded=0;entryX=0.5;entryY=1;entryDx=0;entryDy=0;fontSize=16;fontFamily=Times New Roman;" edge="1" parent="xg--p2_k-tHuz6Lo-uCZ-35" target="xg--p2_k-tHuz6Lo-uCZ-32">
          <mxGeometry width="50" height="50" relative="1" as="geometry">
            <mxPoint x="139.7647058823529" y="480" as="sourcePoint" />
            <mxPoint x="139.7647058823529" y="345.00000000000006" as="targetPoint" />
          </mxGeometry>
        </mxCell>
        <mxCell id="xg--p2_k-tHuz6Lo-uCZ-32" value="Layer Norm" style="rounded=0;whiteSpace=wrap;html=1;fillColor=#fff2cc;strokeColor=#d6b656;fontSize=16;fontFamily=Times New Roman;" vertex="1" parent="xg--p2_k-tHuz6Lo-uCZ-35">
          <mxGeometry x="79.92794117647057" y="375.00000000000006" width="119.67352941176466" height="30" as="geometry" />
        </mxCell>
        <mxCell id="xg--p2_k-tHuz6Lo-uCZ-97" value="" style="group" vertex="1" connectable="0" parent="1">
          <mxGeometry x="-680" y="1770" width="1430" height="1400" as="geometry" />
        </mxCell>
        <mxCell id="xg--p2_k-tHuz6Lo-uCZ-49" value="" style="group;fontSize=30;fontFamily=Times New Roman;" vertex="1" connectable="0" parent="xg--p2_k-tHuz6Lo-uCZ-97">
          <mxGeometry x="899.7752808988763" y="212.12121212121224" width="530.2247191011236" height="815.850815850816" as="geometry" />
        </mxCell>
        <mxCell id="xg--p2_k-tHuz6Lo-uCZ-50" value="" style="rounded=1;whiteSpace=wrap;html=1;fontSize=30;fontFamily=Times New Roman;" vertex="1" parent="xg--p2_k-tHuz6Lo-uCZ-49">
          <mxGeometry y="76.486013986014" width="530.2247191011236" height="675.6264568764568" as="geometry" />
        </mxCell>
        <mxCell id="xg--p2_k-tHuz6Lo-uCZ-51" style="edgeStyle=orthogonalEdgeStyle;rounded=0;orthogonalLoop=1;jettySize=auto;html=1;entryX=0.5;entryY=1;entryDx=0;entryDy=0;fontSize=30;fontFamily=Times New Roman;" edge="1" parent="xg--p2_k-tHuz6Lo-uCZ-49" source="xg--p2_k-tHuz6Lo-uCZ-52" target="xg--p2_k-tHuz6Lo-uCZ-54">
          <mxGeometry relative="1" as="geometry" />
        </mxCell>
        <mxCell id="xg--p2_k-tHuz6Lo-uCZ-52" value="Down projection" style="shape=trapezoid;perimeter=trapezoidPerimeter;whiteSpace=wrap;html=1;fixedSize=1;fillColor=#d80073;fontColor=#ffffff;strokeColor=#A50040;fontSize=30;fontFamily=Times New Roman;" vertex="1" parent="xg--p2_k-tHuz6Lo-uCZ-49">
          <mxGeometry x="109.16391275611362" y="509.90675990676" width="280.7072042300064" height="76.486013986014" as="geometry" />
        </mxCell>
        <mxCell id="xg--p2_k-tHuz6Lo-uCZ-53" style="edgeStyle=orthogonalEdgeStyle;rounded=0;orthogonalLoop=1;jettySize=auto;html=1;fontSize=30;fontFamily=Times New Roman;" edge="1" parent="xg--p2_k-tHuz6Lo-uCZ-49" source="xg--p2_k-tHuz6Lo-uCZ-54" target="xg--p2_k-tHuz6Lo-uCZ-56">
          <mxGeometry relative="1" as="geometry" />
        </mxCell>
        <mxCell id="xg--p2_k-tHuz6Lo-uCZ-54" value="RELU" style="rounded=0;whiteSpace=wrap;html=1;fillColor=#f5f5f5;strokeColor=#666666;fontColor=#333333;fontSize=30;fontFamily=Times New Roman;" vertex="1" parent="xg--p2_k-tHuz6Lo-uCZ-49">
          <mxGeometry x="173.88251817580954" y="356.93473193473193" width="151.26999339061464" height="50.99067599067599" as="geometry" />
        </mxCell>
        <mxCell id="xg--p2_k-tHuz6Lo-uCZ-55" style="edgeStyle=orthogonalEdgeStyle;rounded=0;orthogonalLoop=1;jettySize=auto;html=1;fontSize=30;fontFamily=Times New Roman;" edge="1" parent="xg--p2_k-tHuz6Lo-uCZ-49" source="xg--p2_k-tHuz6Lo-uCZ-56">
          <mxGeometry relative="1" as="geometry">
            <mxPoint x="249.51751487111687" as="targetPoint" />
          </mxGeometry>
        </mxCell>
        <mxCell id="xg--p2_k-tHuz6Lo-uCZ-56" value="" style="shape=trapezoid;perimeter=trapezoidPerimeter;whiteSpace=wrap;html=1;fixedSize=1;rotation=-180;fillColor=#d80073;fontColor=#ffffff;strokeColor=#A50040;fontSize=30;fontFamily=Times New Roman;" vertex="1" parent="xg--p2_k-tHuz6Lo-uCZ-49">
          <mxGeometry x="109.16391275611362" y="178.46736596736596" width="280.7072042300064" height="76.486013986014" as="geometry" />
        </mxCell>
        <mxCell id="xg--p2_k-tHuz6Lo-uCZ-57" value="" style="endArrow=classic;html=1;rounded=0;entryX=0.5;entryY=1;entryDx=0;entryDy=0;fontSize=30;fontFamily=Times New Roman;" edge="1" parent="xg--p2_k-tHuz6Lo-uCZ-49" source="xg--p2_k-tHuz6Lo-uCZ-60" target="xg--p2_k-tHuz6Lo-uCZ-52">
          <mxGeometry width="50" height="50" relative="1" as="geometry">
            <mxPoint x="249.51751487111687" y="764.8601398601398" as="sourcePoint" />
            <mxPoint x="140.3536021150032" y="395.177738927739" as="targetPoint" />
          </mxGeometry>
        </mxCell>
        <mxCell id="xg--p2_k-tHuz6Lo-uCZ-58" value="&lt;font style=&quot;font-size: 30px;&quot; color=&quot;#ffffff&quot;&gt;Up projection&lt;/font&gt;" style="text;html=1;align=center;verticalAlign=middle;whiteSpace=wrap;rounded=0;fontSize=30;fontFamily=Times New Roman;" vertex="1" parent="xg--p2_k-tHuz6Lo-uCZ-49">
          <mxGeometry x="163.74586913417048" y="197.5888694638695" width="171.5432914738928" height="38.243006993007" as="geometry" />
        </mxCell>
        <mxCell id="xg--p2_k-tHuz6Lo-uCZ-59" value="" style="endArrow=classic;html=1;rounded=0;entryX=0.5;entryY=1;entryDx=0;entryDy=0;fontSize=30;fontFamily=Times New Roman;" edge="1" parent="xg--p2_k-tHuz6Lo-uCZ-49" target="xg--p2_k-tHuz6Lo-uCZ-60">
          <mxGeometry width="50" height="50" relative="1" as="geometry">
            <mxPoint x="249.51751487111687" y="815.8508158508158" as="sourcePoint" />
            <mxPoint x="249.51751487111687" y="586.392773892774" as="targetPoint" />
          </mxGeometry>
        </mxCell>
        <mxCell id="xg--p2_k-tHuz6Lo-uCZ-60" value="Layer Norm" style="rounded=0;whiteSpace=wrap;html=1;fillColor=#fff2cc;strokeColor=#d6b656;fontSize=30;fontFamily=Times New Roman;" vertex="1" parent="xg--p2_k-tHuz6Lo-uCZ-49">
          <mxGeometry x="142.69282881691996" y="637.38344988345" width="213.64937210839375" height="50.99067599067599" as="geometry" />
        </mxCell>
        <mxCell id="xg--p2_k-tHuz6Lo-uCZ-36" value="" style="rounded=1;whiteSpace=wrap;html=1;fontSize=30;fontFamily=Times New Roman;" vertex="1" parent="xg--p2_k-tHuz6Lo-uCZ-97">
          <mxGeometry y="97.90209790209792" width="642.6966292134831" height="1125.8741258741259" as="geometry" />
        </mxCell>
        <mxCell id="xg--p2_k-tHuz6Lo-uCZ-94" style="edgeStyle=orthogonalEdgeStyle;rounded=0;orthogonalLoop=1;jettySize=auto;html=1;entryX=0.5;entryY=1;entryDx=0;entryDy=0;fontSize=30;fontFamily=Times New Roman;" edge="1" parent="xg--p2_k-tHuz6Lo-uCZ-97" source="xg--p2_k-tHuz6Lo-uCZ-38" target="xg--p2_k-tHuz6Lo-uCZ-89">
          <mxGeometry relative="1" as="geometry" />
        </mxCell>
        <mxCell id="xg--p2_k-tHuz6Lo-uCZ-38" value="Self Attention" style="rounded=1;whiteSpace=wrap;html=1;fillColor=#d5e8d4;strokeColor=#82b366;fontSize=30;fontFamily=Times New Roman;" vertex="1" parent="xg--p2_k-tHuz6Lo-uCZ-97">
          <mxGeometry x="110.86918539325836" y="1076.9230769230771" width="413.3342696629213" height="117.48251748251751" as="geometry" />
        </mxCell>
        <mxCell id="xg--p2_k-tHuz6Lo-uCZ-85" style="edgeStyle=orthogonalEdgeStyle;rounded=0;orthogonalLoop=1;jettySize=auto;html=1;entryX=0.5;entryY=1;entryDx=0;entryDy=0;fontSize=30;fontFamily=Times New Roman;" edge="1" parent="xg--p2_k-tHuz6Lo-uCZ-97" source="xg--p2_k-tHuz6Lo-uCZ-40" target="xg--p2_k-tHuz6Lo-uCZ-81">
          <mxGeometry relative="1" as="geometry" />
        </mxCell>
        <mxCell id="xg--p2_k-tHuz6Lo-uCZ-40" value="Cross Attention" style="rounded=1;whiteSpace=wrap;html=1;fillColor=#f8cecc;strokeColor=#b85450;fontSize=30;fontFamily=Times New Roman;" vertex="1" parent="xg--p2_k-tHuz6Lo-uCZ-97">
          <mxGeometry x="110.86918539325836" y="717.9487179487178" width="413.3342696629213" height="117.48251748251751" as="geometry" />
        </mxCell>
        <mxCell id="xg--p2_k-tHuz6Lo-uCZ-41" style="edgeStyle=orthogonalEdgeStyle;rounded=0;orthogonalLoop=1;jettySize=auto;html=1;entryX=0.5;entryY=1;entryDx=0;entryDy=0;fontSize=30;fontFamily=Times New Roman;" edge="1" parent="xg--p2_k-tHuz6Lo-uCZ-97" source="xg--p2_k-tHuz6Lo-uCZ-42" target="xg--p2_k-tHuz6Lo-uCZ-45">
          <mxGeometry relative="1" as="geometry" />
        </mxCell>
        <mxCell id="xg--p2_k-tHuz6Lo-uCZ-42" value="Feed forward" style="rounded=1;whiteSpace=wrap;html=1;fillColor=#dae8fc;strokeColor=#6c8ebf;fontSize=30;fontFamily=Times New Roman;" vertex="1" parent="xg--p2_k-tHuz6Lo-uCZ-97">
          <mxGeometry x="111.76896067415726" y="352.4475524475524" width="413.3342696629213" height="117.48251748251751" as="geometry" />
        </mxCell>
        <mxCell id="xg--p2_k-tHuz6Lo-uCZ-43" value="" style="endArrow=classic;html=1;rounded=0;entryX=0.5;entryY=1;entryDx=0;entryDy=0;fontSize=30;fontFamily=Times New Roman;" edge="1" parent="xg--p2_k-tHuz6Lo-uCZ-97" target="xg--p2_k-tHuz6Lo-uCZ-38">
          <mxGeometry width="50" height="50" relative="1" as="geometry">
            <mxPoint x="321.3442977528089" y="1400" as="sourcePoint" />
            <mxPoint x="384.6097471910112" y="851.7482517482517" as="targetPoint" />
          </mxGeometry>
        </mxCell>
        <mxCell id="xg--p2_k-tHuz6Lo-uCZ-44" style="edgeStyle=orthogonalEdgeStyle;rounded=0;orthogonalLoop=1;jettySize=auto;html=1;entryX=0.5;entryY=1;entryDx=0;entryDy=0;fontSize=30;fontFamily=Times New Roman;" edge="1" parent="xg--p2_k-tHuz6Lo-uCZ-97" source="xg--p2_k-tHuz6Lo-uCZ-45" target="xg--p2_k-tHuz6Lo-uCZ-47">
          <mxGeometry relative="1" as="geometry" />
        </mxCell>
        <mxCell id="xg--p2_k-tHuz6Lo-uCZ-45" value="Adaptor" style="rounded=1;whiteSpace=wrap;html=1;fillColor=#0050ef;strokeColor=#001DBC;fontColor=#ffffff;fontSize=30;fontFamily=Times New Roman;" vertex="1" parent="xg--p2_k-tHuz6Lo-uCZ-97">
          <mxGeometry x="132.3955056179775" y="212.12121212121224" width="372.08921348314607" height="62.00466200466201" as="geometry" />
        </mxCell>
        <mxCell id="xg--p2_k-tHuz6Lo-uCZ-46" style="edgeStyle=orthogonalEdgeStyle;rounded=0;orthogonalLoop=1;jettySize=auto;html=1;fontSize=30;fontFamily=Times New Roman;" edge="1" parent="xg--p2_k-tHuz6Lo-uCZ-97" source="xg--p2_k-tHuz6Lo-uCZ-47">
          <mxGeometry relative="1" as="geometry">
            <mxPoint x="316.32724719101117" as="targetPoint" />
          </mxGeometry>
        </mxCell>
        <mxCell id="xg--p2_k-tHuz6Lo-uCZ-47" value="+" style="ellipse;whiteSpace=wrap;html=1;aspect=fixed;fontSize=30;fontFamily=Times New Roman;" vertex="1" parent="xg--p2_k-tHuz6Lo-uCZ-97">
          <mxGeometry x="307.89185393258424" y="137.06293706293718" width="16.50793650793651" height="16.50793650793651" as="geometry" />
        </mxCell>
        <mxCell id="xg--p2_k-tHuz6Lo-uCZ-48" value="" style="endArrow=classic;html=1;rounded=0;entryX=0;entryY=0.5;entryDx=0;entryDy=0;fontSize=30;fontFamily=Times New Roman;" edge="1" parent="xg--p2_k-tHuz6Lo-uCZ-97" target="xg--p2_k-tHuz6Lo-uCZ-47">
          <mxGeometry width="50" height="50" relative="1" as="geometry">
            <mxPoint x="316.32724719101117" y="313.28671328671317" as="sourcePoint" />
            <mxPoint x="316.32724719101117" y="352.4475524475524" as="targetPoint" />
            <Array as="points">
              <mxPoint x="63.26544943820227" y="313.28671328671317" />
              <mxPoint x="63.26544943820227" y="146.85314685314688" />
            </Array>
          </mxGeometry>
        </mxCell>
        <mxCell id="xg--p2_k-tHuz6Lo-uCZ-80" style="edgeStyle=orthogonalEdgeStyle;rounded=0;orthogonalLoop=1;jettySize=auto;html=1;entryX=0.5;entryY=1;entryDx=0;entryDy=0;fontSize=30;fontFamily=Times New Roman;" edge="1" parent="xg--p2_k-tHuz6Lo-uCZ-97" source="xg--p2_k-tHuz6Lo-uCZ-78" target="xg--p2_k-tHuz6Lo-uCZ-42">
          <mxGeometry relative="1" as="geometry" />
        </mxCell>
        <mxCell id="xg--p2_k-tHuz6Lo-uCZ-78" value="+" style="ellipse;whiteSpace=wrap;html=1;aspect=fixed;fontSize=30;fontFamily=Times New Roman;" vertex="1" parent="xg--p2_k-tHuz6Lo-uCZ-97">
          <mxGeometry x="308.79162921348313" y="505.8275058275058" width="16.50793650793651" height="16.50793650793651" as="geometry" />
        </mxCell>
        <mxCell id="xg--p2_k-tHuz6Lo-uCZ-82" style="edgeStyle=orthogonalEdgeStyle;rounded=0;orthogonalLoop=1;jettySize=auto;html=1;exitX=0.5;exitY=0;exitDx=0;exitDy=0;entryX=0.5;entryY=1;entryDx=0;entryDy=0;fontSize=30;fontFamily=Times New Roman;" edge="1" parent="xg--p2_k-tHuz6Lo-uCZ-97" source="xg--p2_k-tHuz6Lo-uCZ-81" target="xg--p2_k-tHuz6Lo-uCZ-78">
          <mxGeometry relative="1" as="geometry" />
        </mxCell>
        <mxCell id="xg--p2_k-tHuz6Lo-uCZ-81" value="Adaptor" style="rounded=1;whiteSpace=wrap;html=1;fillColor=#0050ef;strokeColor=#001DBC;fontColor=#ffffff;fontSize=30;fontFamily=Times New Roman;" vertex="1" parent="xg--p2_k-tHuz6Lo-uCZ-97">
          <mxGeometry x="139.97932584269665" y="571.0955710955714" width="356.9215730337078" height="62.00466200466201" as="geometry" />
        </mxCell>
        <mxCell id="xg--p2_k-tHuz6Lo-uCZ-86" value="" style="endArrow=classic;html=1;rounded=0;entryX=0;entryY=0.5;entryDx=0;entryDy=0;fontSize=30;fontFamily=Times New Roman;" edge="1" parent="xg--p2_k-tHuz6Lo-uCZ-97">
          <mxGeometry width="50" height="50" relative="1" as="geometry">
            <mxPoint x="321.34831460674155" y="686.9463869463871" as="sourcePoint" />
            <mxPoint x="308.7916292135379" y="517.2494172494171" as="targetPoint" />
            <Array as="points">
              <mxPoint x="64.2696629213483" y="686.9463869463871" />
              <mxPoint x="64.2696629213483" y="517.2494172494171" />
            </Array>
          </mxGeometry>
        </mxCell>
        <mxCell id="xg--p2_k-tHuz6Lo-uCZ-88" style="edgeStyle=orthogonalEdgeStyle;rounded=0;orthogonalLoop=1;jettySize=auto;html=1;entryX=0.5;entryY=1;entryDx=0;entryDy=0;fontSize=30;fontFamily=Times New Roman;" edge="1" parent="xg--p2_k-tHuz6Lo-uCZ-97" source="xg--p2_k-tHuz6Lo-uCZ-87" target="xg--p2_k-tHuz6Lo-uCZ-40">
          <mxGeometry relative="1" as="geometry" />
        </mxCell>
        <mxCell id="xg--p2_k-tHuz6Lo-uCZ-87" value="+" style="ellipse;whiteSpace=wrap;html=1;aspect=fixed;fontSize=30;fontFamily=Times New Roman;" vertex="1" parent="xg--p2_k-tHuz6Lo-uCZ-97">
          <mxGeometry x="307.89185393258424" y="881.1188811188813" width="16.50793650793651" height="16.50793650793651" as="geometry" />
        </mxCell>
        <mxCell id="xg--p2_k-tHuz6Lo-uCZ-92" style="edgeStyle=orthogonalEdgeStyle;rounded=0;orthogonalLoop=1;jettySize=auto;html=1;entryX=0.5;entryY=1;entryDx=0;entryDy=0;fontSize=30;fontFamily=Times New Roman;" edge="1" parent="xg--p2_k-tHuz6Lo-uCZ-97" source="xg--p2_k-tHuz6Lo-uCZ-89" target="xg--p2_k-tHuz6Lo-uCZ-87">
          <mxGeometry relative="1" as="geometry" />
        </mxCell>
        <mxCell id="xg--p2_k-tHuz6Lo-uCZ-89" value="Adaptor" style="rounded=1;whiteSpace=wrap;html=1;fillColor=#0050ef;strokeColor=#001DBC;fontColor=#ffffff;fontSize=30;fontFamily=Times New Roman;" vertex="1" parent="xg--p2_k-tHuz6Lo-uCZ-97">
          <mxGeometry x="139.07955056179776" y="946.3869463869464" width="356.9215730337078" height="62.00466200466201" as="geometry" />
        </mxCell>
        <mxCell id="xg--p2_k-tHuz6Lo-uCZ-95" value="" style="endArrow=classic;html=1;rounded=0;entryX=0;entryY=0.5;entryDx=0;entryDy=0;fontSize=30;fontFamily=Times New Roman;" edge="1" parent="xg--p2_k-tHuz6Lo-uCZ-97">
          <mxGeometry width="50" height="50" relative="1" as="geometry">
            <mxPoint x="319.7415730337078" y="1044.2890442890443" as="sourcePoint" />
            <mxPoint x="306.28511235955693" y="890.909090909091" as="targetPoint" />
            <Array as="points">
              <mxPoint x="110.86516853932585" y="1044.2890442890443" />
              <mxPoint x="110.86516853932585" y="890.909090909091" />
            </Array>
          </mxGeometry>
        </mxCell>
      </root>
    </mxGraphModel>
  </diagram>
</mxfile>
